# xmcd
#
# Track frame offsets:
#	150
#	16153
#	29876
#	46455
#	58961
#	72580
#	88538
#	101481
#	118401
#	134833
#	149719
#
# Disc length: 2219 seconds
#
# Revision: 1
# Processed by: cddbd v1.5.2PL0 Copyright (c) Steve Scherf et al.
# Submitted via: audiograbber 1.83.01
#
DISCID=b508a90b
DTITLE=Logan Mize - Come Back Road
DYEAR=2017
DGENRE=Country
TTITLE0=Somebody to Thank
TTITLE1=Life's a Party
TTITLE2=Cool Girl
TTITLE3=Come Back Road
TTITLE4=All This Night Needs
TTITLE5=Ain't Always Pretty
TTITLE6=Drinkin' Buddies
TTITLE7=Bands Make Her Dance
TTITLE8=Catch a Fish
TTITLE9=All Time
TTITLE10=Big City
EXTD=
EXTT0=
EXTT1=
EXTT2=
EXTT3=
EXTT4=
EXTT5=
EXTT6=
EXTT7=
EXTT8=
EXTT9=
EXTT10=
PLAYORDER=
